<svg id="Logo-Header" xmlns="http://www.w3.org/2000/svg" viewBox="0 0 331.238 53.242" class="h-10 text-black"><g id="Group_2" data-name="Group 2" transform="translate(-28.947 -119.769)"><g id="Group_1" data-name="Group 1"><path id="Path_1" data-name="Path 1" d="M28.947,146.749c0-14.9,40.857-26.98,91.259-26.98,30.22,0,57.008,4.343,73.616,11.031-16.117-4.6-38.308-7.447-62.807-7.447-49.247,0-89.168,11.492-89.168,25.67,0,10.953,23.82,20.3,57.357,23.988C58.927,170.208,28.947,159.515,28.947,146.749Z" fill="#009a7c"></path><path id="Path_2" data-name="Path 2" d="M49.819,149.38c0-13.52,36.8-24.479,82.192-24.479,24.745,0,46.936,3.256,62.005,8.411-14.039-3.672-32.227-5.885-52.1-5.885-44.45,0-80.483,11.082-80.483,24.76,0,6.488,8.113,12.392,21.391,16.808C62.79,164.53,49.819,157.4,49.819,149.38Z" fill="#0067b6"></path></g></g><g id="Group_3" data-name="Group 3" transform="translate(-28.947 -119.769)"><path id="Path_3" data-name="Path 3" d="M88.172,146.513c0-1.231,0-2.041-1.4-2.131-.627-.029-1.026-.06-1.026-.48s.114-.42,1.055-.42c.284,0,1.681.121,2.023.121.77,0,4.56-.121,5.415-.121,5.045,0,5.472,3.66,5.472,4.71a4.39,4.39,0,0,1-3.9,4.44c.371.24.713.42,1.369,1.681l2.764,5.159c.57,1.051.969,1.8,1.767,1.921.94.12,1.168.149,1.168.54,0,.33-.284.359-.484.359-.371,0-2.223-.119-2.65-.119-.228,0-1.283.119-1.539.119-.514,0-.627-.269-.941-.9l-3.449-6.841c-.626-1.289-.769-1.41-2.051-1.41-.485,0-.542.18-.542.691v5.4c0,1.26,0,2.07,1.425,2.161.627.03,1.026.059,1.026.509,0,.42-.37.39-.6.39-.542,0-3.306-.119-3.421-.119-.484,0-2.793.119-3.305.119-.228,0-.6.03-.6-.42,0-.42.427-.449,1.026-.479,1.4-.12,1.4-.9,1.4-2.161Zm3.05,4.74c0,1.049,0,1.109,1.425,1.109,1.026,0,3.848,0,3.848-3.75,0-1.08-.4-4.29-3.934-4.29-1.31,0-1.339.72-1.339,1.89Z" fill="currentColor"></path><path id="Path_4" data-name="Path 4" d="M109.633,151.582c0-1.05-.086-2.489-1.425-2.489-1.653,0-2.28,1.83-2.508,2.519a2.509,2.509,0,0,1-2.138,1.471.6.6,0,0,1-.627-.6c0-1.02,1.8-4.11,6.128-4.11,2.679,0,3.334.96,3.334,2.191v8.37c0,.929.086,1.679.884,1.679a1.341,1.341,0,0,0,.826-.3c.314-.271.342-.3.485-.3a.281.281,0,0,1,.257.269c0,.721-1.739,2.13-2.993,2.13a2.3,2.3,0,0,1-2-1.62c-.257-.57-.314-.57-.4-.57-.057,0-.2.121-.2.121-1.2,1.019-2.736,2.129-4.018,2.129-2.08,0-2.223-2.07-2.223-2.52,0-2.189,1.51-3.48,5.9-5.31.684-.3.713-.539.713-1.079Zm0,4.05c0-.3-.171-.33-.314-.33a4.722,4.722,0,0,0-1.567.631,2.645,2.645,0,0,0-1.8,2.639c0,1.441.656,1.98,1.283,1.98,1.282,0,2.394-1.08,2.394-3.18Z" fill="currentColor"></path><path id="Path_5" data-name="Path 5" d="M128.1,159.622c0,.87.2,1.051.428,1.051.2,0,.94-.78,1.168-.78.171,0,.171.269.171.36,0,.779-.057.81-1.938,1.469a17.5,17.5,0,0,1-1.938.75c-.228,0-.4-.06-.484-1.17,0-.18-.057-.449-.257-.449a.853.853,0,0,0-.4.21,4.845,4.845,0,0,1-3.363,1.409c-3.22,0-6.013-2.7-6.013-6.719a7.155,7.155,0,0,1,6.9-7.381,6.3,6.3,0,0,1,2.422.51,1.149,1.149,0,0,0,.342.121.229.229,0,0,0,.2-.24v-3.181c0-.9-.143-1.17-1.055-1.229-.142-.031-.513-.09-.513-.361,0-.33.428-.45.513-.479a11.446,11.446,0,0,0,3.249-1.17.643.643,0,0,1,.342-.121c.342,0,.342.451.342.57,0,.42-.114,2.43-.114,2.881Zm-2.65-6.57c0-1.35,0-4.049-2.879-4.049-1.966,0-4.075,1.92-4.075,5.85,0,3.389,1.738,5.939,4.56,5.939,2.394,0,2.394-1.17,2.394-1.709Z" fill="currentColor"></path><path id="Path_6" data-name="Path 6" d="M132.347,153.563c0-1.531-.256-1.951-1.282-2.011-.086,0-.542-.029-.542-.39,0-.21.114-.36.456-.479a8.815,8.815,0,0,0,2.508-1.231c.2-.15,1.083-.96,1.311-.96.314,0,.314.39.314,1.05v9.69c0,1.65,0,2.01,1.225,2.191.713.09.855.239.855.51,0,.359-.285.359-.484.359-.428,0-1.653-.119-2.964-.119-1.2,0-2.508.119-2.993.119-.2,0-.484,0-.484-.39,0-.27.228-.389.855-.479,1.225-.181,1.225-.511,1.225-2.16Zm1.368-6.9a1.6,1.6,0,0,1-1.6-1.62,1.63,1.63,0,0,1,1.6-1.65,1.614,1.614,0,0,1,1.568,1.68A1.592,1.592,0,0,1,133.715,146.662Z" fill="currentColor"></path><path id="Path_7" data-name="Path 7" d="M145,162.472a7.051,7.051,0,0,1-.114-14.1,6.654,6.654,0,0,1,6.869,6.78C151.756,159.143,148.962,162.472,145,162.472Zm-.086-.69c2.081,0,3.876-2.79,3.876-6.33,0-2.07-1.025-6.389-4.132-6.389-2.052,0-3.733,2.159-3.733,5.819C140.926,158.6,142.664,161.782,144.915,161.782Z" fill="currentColor"></path><path id="Path_8" data-name="Path 8" d="M154.748,146.542c0-.9,0-1.92-1.026-2.01-.513-.06-.656-.06-.656-.39,0-.27.086-.3.912-.51a13.859,13.859,0,0,0,2.452-.9c.683-.36.74-.389.883-.389.313,0,.313.33.313.629,0,.39-.113,2.25-.113,2.58v13.68c0,1.68,0,2.01,1.225,2.191.713.09.855.239.855.51,0,.359-.285.359-.485.359-.769,0-1.339-.119-2.992-.119-1.881,0-2.223.119-2.822.119-.341,0-.627,0-.627-.39,0-.27.228-.389.855-.479,1.226-.181,1.226-.511,1.226-2.16Z" fill="currentColor"></path><path id="Path_9" data-name="Path 9" d="M167.4,162.472a7.051,7.051,0,0,1-.113-14.1,6.653,6.653,0,0,1,6.868,6.78C174.156,159.143,171.363,162.472,167.4,162.472Zm-.085-.69c2.08,0,3.876-2.79,3.876-6.33,0-2.07-1.026-6.389-4.132-6.389-2.053,0-3.734,2.159-3.734,5.819C163.326,158.6,165.064,161.782,167.316,161.782Z" fill="currentColor"></path><path id="Path_10" data-name="Path 10" d="M188.092,149.423c.513,0,.541.75.541.809,0,.361-.085.39-.485.39h-1.025c-.342,0-.514.03-.514.21a.493.493,0,0,0,.086.271,5.076,5.076,0,0,1,.456,1.92c0,1.589-1.481,4.29-5.472,4.41-.8.029-2.621.09-2.621,1.109,0,.9,1.168.93,1.339.93h3.5c3.619-.03,4.817,1.711,4.817,3.18,0,2.851-3.506,5.431-8.179,5.431-2,0-5.359-.6-5.359-3.06,0-1.5,1.226-2.19,2.309-2.76.2-.12.769-.42.769-.571,0-.089,0-.15-.655-.629-.285-.21-1.6-1.321-1.6-2.011a.839.839,0,0,1,.627-.84l1.967-.72c.313-.12.4-.179.4-.27s-.114-.15-.17-.18c-1.141-.6-2.936-1.56-2.936-3.9,0-2.43,2.166-4.77,5.643-4.77a6.484,6.484,0,0,1,3.022.721,2.094,2.094,0,0,0,1.224.33Zm-7.04,12.689c-.256,0-1.367-.15-1.624-.15a2.335,2.335,0,0,0-1.568,2.311c0,1.65,1.6,2.939,3.9,2.939,1.51,0,4.532-.629,4.532-3.09,0-2.01-3.05-2.039-3.791-2.039Zm.542-13.08c-1.368,0-2.622,1.35-2.622,3.9,0,2.67,1.4,3.869,2.679,3.869.256,0,2.451,0,2.451-3.989C184.1,151.7,183.617,149.032,181.594,149.032Z" fill="currentColor"></path><path id="Path_11" data-name="Path 11" d="M196.893,158.393l2.564-6.361a4.739,4.739,0,0,0,.37-1.5c0-.54-.284-.87-1.026-.9-.712-.029-1-.029-1-.42s.37-.39.542-.39c.341,0,1.224.12,2.279.12,1.111,0,1.967-.12,2.2-.12.085,0,.428,0,.428.361,0,.33-.172.359-1.055.479-.656.091-.941.72-1.6,2.13-1.2,2.58-2.223,4.74-3.42,7.891-.8,2.1-2.109,5.519-2.651,7.32-.37,1.229-.512,1.709-1.995,1.709-1.51,0-1.567-.84-1.567-1.26,0-.66.227-1.41,1.225-1.41l.8.03c.428,0,.827-.059,1.254-1.08l.712-1.71a2.719,2.719,0,0,0,.229-.81,9.792,9.792,0,0,0-.4-1.5l-3.677-9.51c-.655-1.709-.883-1.74-2-1.859a.4.4,0,0,1-.456-.391c0-.39.456-.39.77-.39.285,0,1.254.09,3.62.09,1.339,0,1.881-.09,2.336-.09.285,0,.484.09.484.39,0,.391-.113.391-1.2.51a.722.722,0,0,0-.712.75,2.969,2.969,0,0,0,.256.99Z" fill="currentColor"></path><path id="Path_12" data-name="Path 12" d="M212.884,155.3c-.855,0-.855,0-1.083.781l-.969,3.209a9.982,9.982,0,0,0-.257,1.26c0,.75.712.81,1.368.841.741.03,1.083.12,1.083.479,0,.42-.342.42-1,.42-.285,0-1.967-.119-2.793-.119-.314,0-2,.119-2.366.119-.171,0-.542,0-.542-.449,0-.391.4-.45.856-.51.94-.091,1.2-.121,1.738-1.171.912-1.86,3.42-8.88,5.3-14.069,1.054-2.91,1.054-2.941,1.339-2.941.315,0,.4.21.827,1.441.285.84.6,1.68.827,2.25l4.446,11.4c.912,2.31,1.2,2.97,2.365,3.151.485.059.8.12.8.509s-.484.39-.655.39c-.485,0-2.85-.119-3.335-.119-1.738,0-3.22.119-3.306.119-.285,0-.656,0-.656-.42,0-.39.457-.479,1.027-.539.741-.06,1-.211,1-.66a2.718,2.718,0,0,0-.2-.871l-1.224-3.6c-.315-.9-.4-.9-1.169-.9Zm2.993-1.08c.654,0,.654-.119.654-.209a1.623,1.623,0,0,0-.17-.571l-2-5.16-1.766,5.071a1.873,1.873,0,0,0-.115.57c0,.3.172.3.685.3Z" fill="currentColor"></path><path id="Path_13" data-name="Path 13" d="M225.394,158.273c0-.09.03-.541.4-.541.313,0,.456.271.6.84.142.54.968,3.15,3.277,3.15a2.64,2.64,0,0,0,2.765-2.459c0-1.59-1.312-2.281-3.278-3.09-1.681-.691-3.705-1.531-3.705-3.691,0-1.709,1.282-4.11,5.073-4.11.428,0,2.536.33,2.764.33.713.09.713.42.713.9l-.113,1.769c0,.12-.058.481-.343.481-.2,0-.342-.061-.513-.631a3,3,0,0,0-2.849-2.159,2.045,2.045,0,0,0-2.282,1.8c0,1.2.628,1.471,3.506,2.731.969.449,3.363,1.47,3.363,4.049,0,2.251-1.738,4.83-5.5,4.83a9.169,9.169,0,0,1-3.591-.84c-.342-.18-.342-.42-.342-1.14Z" fill="currentColor"></path><path id="Path_14" data-name="Path 14" d="M236.31,158.273c0-.09.028-.541.4-.541.313,0,.456.271.6.84.142.54.968,3.15,3.277,3.15a2.641,2.641,0,0,0,2.765-2.459c0-1.59-1.311-2.281-3.278-3.09-1.681-.691-3.705-1.531-3.705-3.691,0-1.709,1.282-4.11,5.072-4.11.428,0,2.538.33,2.766.33.712.09.712.42.712.9l-.114,1.769c0,.12-.057.481-.342.481-.2,0-.342-.061-.513-.631a3,3,0,0,0-2.85-2.159,2.044,2.044,0,0,0-2.28,1.8c0,1.2.627,1.471,3.506,2.731.969.449,3.362,1.47,3.362,4.049,0,2.251-1.738,4.83-5.5,4.83a9.166,9.166,0,0,1-3.589-.84c-.343-.18-.343-.42-.343-1.14Z" fill="currentColor"></path><path id="Path_15" data-name="Path 15" d="M253.979,162.472a7.051,7.051,0,0,1-.114-14.1,6.653,6.653,0,0,1,6.869,6.78C260.734,159.143,257.941,162.472,253.979,162.472Zm-.085-.69c2.081,0,3.875-2.79,3.875-6.33,0-2.07-1.025-6.389-4.131-6.389-2.052,0-3.734,2.159-3.734,5.819C249.9,158.6,251.643,161.782,253.894,161.782Z" fill="currentColor"></path><path id="Path_16" data-name="Path 16" d="M270.709,160.882a5.323,5.323,0,0,0,3.221-1.08c.056-.029.2-.15.312-.15a.292.292,0,0,1,.258.3c0,.6-2.139,2.52-5.188,2.52-3.248,0-7.1-2.01-7.1-6.659,0-4.831,4.217-7.441,7.752-7.441.455,0,4.388.24,4.388,1.981,0,.42-.142,2.1-.855,2.1-.484,0-.826-.48-1.768-1.8-.882-1.229-1.424-1.62-2.222-1.62-1.254,0-4.16,1.5-4.16,6.18A5.613,5.613,0,0,0,270.709,160.882Z" fill="currentColor"></path><path id="Path_17" data-name="Path 17" d="M277.605,153.563c0-1.531-.255-1.951-1.281-2.011-.086,0-.543-.029-.543-.39,0-.21.115-.36.457-.479a8.83,8.83,0,0,0,2.508-1.231c.2-.15,1.084-.96,1.311-.96.314,0,.314.39.314,1.05v9.69c0,1.65,0,2.01,1.225,2.191.713.09.855.239.855.51,0,.359-.285.359-.484.359-.428,0-1.653-.119-2.965-.119-1.2,0-2.508.119-2.992.119-.2,0-.485,0-.485-.39,0-.27.229-.389.856-.479,1.224-.181,1.224-.511,1.224-2.16Zm1.37-6.9a1.6,1.6,0,0,1-1.6-1.62,1.583,1.583,0,1,1,3.162.03A1.591,1.591,0,0,1,278.975,146.662Z" fill="currentColor"></path><path id="Path_18" data-name="Path 18" d="M289.861,151.582c0-1.05-.086-2.489-1.426-2.489-1.652,0-2.279,1.83-2.507,2.519a2.507,2.507,0,0,1-2.137,1.471.6.6,0,0,1-.627-.6c0-1.02,1.8-4.11,6.127-4.11,2.68,0,3.334.96,3.334,2.191v8.37c0,.929.086,1.679.885,1.679a1.345,1.345,0,0,0,.826-.3c.314-.271.342-.3.484-.3a.279.279,0,0,1,.256.269c0,.721-1.738,2.13-2.992,2.13a2.3,2.3,0,0,1-1.994-1.62c-.258-.57-.315-.57-.4-.57-.056,0-.2.121-.2.121-1.2,1.019-2.734,2.129-4.017,2.129-2.08,0-2.223-2.07-2.223-2.52,0-2.189,1.51-3.48,5.9-5.31.684-.3.713-.539.713-1.079Zm0,4.05c0-.3-.172-.33-.312-.33a4.706,4.706,0,0,0-1.569.631,2.645,2.645,0,0,0-1.8,2.639c0,1.441.655,1.98,1.282,1.98,1.283,0,2.394-1.08,2.394-3.18Z" fill="currentColor"></path><path id="Path_19" data-name="Path 19" d="M299.779,158.063c0,1.349.17,2.729,1.653,2.729a3.1,3.1,0,0,0,1.824-.75.68.68,0,0,1,.312-.119.258.258,0,0,1,.229.269c0,.451-1.824,2.28-3.9,2.28-1.483,0-2.879-1.02-2.879-3.27v-8.609c0-.391-.227-.57-.655-.541-.228,0-.427.03-.656.03-.143,0-.484,0-.484-.329,0-.3.314-.48.427-.541l.77-.42a7.244,7.244,0,0,0,2.508-2.7c.113-.151.285-.361.484-.361.086,0,.371,0,.371.48v2.041c0,.569.114.689.713.689h1.623c.4,0,.6-.06.856-.06.228,0,.427.06.371.6s-.143.63-.514.63c-.484,0-1.141-.06-2.508-.06-.484,0-.541.06-.541.69Z" fill="currentColor"></path><path id="Path_20" data-name="Path 20" d="M308.471,153.263c-.485,0-.741.029-.741,1.59,0,3.359,2.11,5.939,5.045,5.939a4.52,4.52,0,0,0,3.135-1.2c.428-.45.455-.481.627-.481a.259.259,0,0,1,.256.27c0,.451-1.994,3.09-5.615,3.09a6.382,6.382,0,0,1-6.612-6.78,6.974,6.974,0,0,1,7.069-7.32c4.3,0,5.215,3.33,5.215,4.35,0,.541-.313.541-.77.541Zm3.506-.93c1.224,0,1.937-.66,1.937-1.441,0-1.77-1.937-1.829-2.365-1.829A3.556,3.556,0,0,0,308.1,152c0,.33.113.33.767.33Z" fill="currentColor"></path><path id="Path_21" data-name="Path 21" d="M318.588,158.273c0-.09.029-.541.4-.541.315,0,.457.271.6.84.142.54.969,3.15,3.277,3.15a2.64,2.64,0,0,0,2.764-2.459c0-1.59-1.311-2.281-3.277-3.09-1.682-.691-3.706-1.531-3.706-3.691,0-1.709,1.284-4.11,5.075-4.11.425,0,2.535.33,2.763.33.713.09.713.42.713.9l-.115,1.769c0,.12-.057.481-.342.481-.2,0-.342-.061-.511-.631a3.009,3.009,0,0,0-2.852-2.159,2.043,2.043,0,0,0-2.279,1.8c0,1.2.627,1.471,3.506,2.731.968.449,3.363,1.47,3.363,4.049,0,2.251-1.738,4.83-5.5,4.83a9.17,9.17,0,0,1-3.592-.84c-.342-.18-.342-.42-.342-1.14Z" fill="currentColor"></path></g><g id="Group_4" data-name="Group 4" transform="translate(-28.947 -119.769)"><path id="Path_22" data-name="Path 22" d="M334.319,155.983c0-.492,0-.816-.611-.851-.252-.013-.42-.025-.42-.205s.155-.167.252-.167c.2,0,.839.048,1.463.048.756,0,1.176-.048,1.4-.048.1,0,.252,0,.252.167s-.18.192-.42.205c-.611.035-.636.359-.636.814v4.786c0,.755.216,1.164.96,1.164a2.173,2.173,0,0,0,2.075-1.32c.048-.1.1-.143.168-.143.12,0,.156.1.156.191s-.156,1.164-.168,1.367c-.024.229-.084.288-.3.288-.108,0-.1-.048-2.818-.048a20.166,20.166,0,0,0-2.148.048c-.084,0-.239,0-.239-.168s.18-.179.42-.2c.611-.035.611-.359.611-.863Z" fill="currentColor"></path><path id="Path_23" data-name="Path 23" d="M340.535,162.352a.629.629,0,0,1-.636-.613.617.617,0,0,1,.624-.611.629.629,0,0,1,.635.624A.615.615,0,0,1,340.535,162.352Z" fill="currentColor"></path><path id="Path_24" data-name="Path 24" d="M343.428,155.983c0-.492,0-.816-.613-.851-.252-.013-.42-.025-.42-.205s.157-.167.252-.167c.2,0,.84.048,1.464.048.755,0,1.175-.048,1.4-.048.095,0,.251,0,.251.167s-.18.192-.419.205c-.613.035-.636.359-.636.814v4.786c0,.755.216,1.164.959,1.164a2.172,2.172,0,0,0,2.075-1.32c.048-.1.1-.143.168-.143.12,0,.155.1.155.191s-.155,1.164-.167,1.367c-.024.229-.084.288-.3.288-.109,0-.1-.048-2.82-.048a20.083,20.083,0,0,0-2.146.048c-.084,0-.241,0-.241-.168s.181-.179.42-.2c.613-.035.613-.359.613-.863Z" fill="currentColor"></path><path id="Path_25" data-name="Path 25" d="M349.643,162.352a.627.627,0,0,1-.635-.613.616.616,0,0,1,.623-.611.63.63,0,0,1,.636.624A.615.615,0,0,1,349.643,162.352Z" fill="currentColor"></path><path id="Path_26" data-name="Path 26" d="M357.53,156.223c0,.12,0,.2-.143.2-.084,0-.157-.024-.288-.216A2.148,2.148,0,0,0,355.12,155c-1.967,0-2.879,1.92-2.879,3.455,0,1.679.984,3.6,2.8,3.6,1.1,0,1.631-.672,2.135-1.6.023-.048.12-.227.239-.227.181,0,.181.108.181.192l-.1,1.019c-.012.168-.035.276-.287.42a4.589,4.589,0,0,1-2.207.492,4.109,4.109,0,0,1-4.365-3.851c0-1.666,1.438-3.813,4.569-3.813a7.945,7.945,0,0,1,1.571.168c.539.1.6.2.648.528Z" fill="currentColor"></path><path id="Path_27" data-name="Path 27" d="M359.561,162.352a.627.627,0,0,1-.634-.613.616.616,0,0,1,.623-.611.629.629,0,0,1,.635.624A.614.614,0,0,1,359.561,162.352Z" fill="currentColor"></path></g></svg>